<svg width="512" height="512" xmlns="http://www.w3.org/2000/svg" xml:space="preserve" version="1.1">

 <g>
  <title>Capa 1</title>
  <g opacity="0" id="svg_1">
   <path id="svg_2" fill="#D4D2D3" d="m66.823,41.807l-28.19,0c-8.133,0 -14.725,6.593 -14.725,14.725l0,401.711c0,6.6 5.351,11.95 11.95,11.95l33.74,0c6.6,0 11.95,-5.351 11.95,-11.95l0,-401.711c0,-8.133 -6.593,-14.725 -14.725,-14.725z"/>
   <path id="svg_3" fill="#D4D2D3" d="m445.177,41.807l28.19,0c8.133,0 14.725,6.593 14.725,14.725l0,401.711c0,6.6 -5.351,11.95 -11.95,11.95l-33.74,0c-6.6,0 -11.95,-5.351 -11.95,-11.95l0,-401.711c0,-8.133 6.593,-14.725 14.725,-14.725z"/>
  </g>
  <g id="svg_4">
   <polygon id="svg_5" fill="#465059" points="74.425,78.967 25.806,101.334 0,153.394 0,233.703 101.506,171.355 154.735,78.967  "/>
   <polygon id="svg_6" fill="#465059" points="228.749,78.967 101.506,171.355 43.974,263.742 124.284,263.742 240.516,188.731    309.058,78.967  "/>
   <polygon id="svg_7" fill="#465059" points="383.071,78.967 240.516,188.731 198.296,263.742 278.606,263.742 395.303,184.671    463.381,78.967  "/>
   <polygon id="svg_8" fill="#465059" points="383.071,201.118 352.62,263.742 432.929,263.742 490.323,233.703 512,184.671 512,104.361     "/>
  </g>
  <g id="svg_9">
   <path id="svg_10" fill="#FFCD38" d="m512,184.671l0,55.164c0,13.203 -10.705,23.907 -23.907,23.907l-55.164,0l79.071,-79.071z"/>
   <path id="svg_11" fill="#FFCD38" d="m512,102.875l0,1.487l-159.38,159.38l-74.013,0l184.774,-184.775l24.712,0c13.202,0 23.907,10.705 23.907,23.908z"/>
   <polygon id="svg_12" fill="#FFCD38" points="383.071,78.967 198.296,263.742 124.284,263.742 309.058,78.967  "/>
   <path id="svg_13" fill="#FFCD38" d="m228.749,78.967l-184.775,184.775l-20.067,0c-13.202,0 -23.907,-10.705 -23.907,-23.908l0,-6.132l154.735,-154.735l74.014,0z"/>
   <path id="svg_14" fill="#FFCD38" d="m74.425,78.967l-74.425,74.427l0,-50.519c0,-13.203 10.705,-23.907 23.907,-23.907l50.518,0l0,-0.001z"/>
  </g>
  <g id="svg_15">
   <rect id="svg_16" fill="#BAB8B9" height="31.101" width="57.642" y="263.737" x="23.911"/>
   <rect id="svg_17" fill="#BAB8B9" height="31.101" width="57.642" y="263.737" x="430.451"/>
  </g>
  <g id="svg_18"/>
  <g id="svg_19"/>
  <g id="svg_20"/>
  <g id="svg_21"/>
  <g id="svg_22"/>
  <g id="svg_23"/>
  <g id="svg_24"/>
  <g id="svg_25"/>
  <g id="svg_26"/>
  <g id="svg_27"/>
  <g id="svg_28"/>
  <g id="svg_29"/>
  <g id="svg_30"/>
  <g id="svg_31"/>
  <g id="svg_32"/>
  <text font-style="normal" font-weight="normal" transform="matrix(1.94, 0, 0, 3.22822, -70.0495, -311.343)" xml:space="preserve" text-anchor="start" font-family="sans-serif" font-size="24" id="svg_33" y="156.77014" x="64.17543" stroke-width="0" stroke="#000" fill="#000000">En Construcción</text>
 </g>
</svg>